<svg height="440pt" viewBox="-51 0 440 440.10405" width="440pt" xmlns="http://www.w3.org/2000/svg"><path d="m327.851562 123.402344h-71.800781c5.304688 17.824218 21.707031 30.035156 40.300781 30h31.5zm0 0" fill="#d4e1f4"/><path d="m50.050781 417.902344v-336c0-23.195313 18.804688-42 42-42h122.300781v-29.796875l-2.097656-.203125h-160.203125c-23.195312 0-42 18.804687-42 42v336c0 23.082031 18.621094 41.835937 41.703125 42-1.132812-3.898438-1.707031-7.9375-1.703125-12zm0 0" fill="#d4e1f4"/><path d="m242.050781 213.902344-95 90.800781-51-51c-3.890625-3.894531-10.207031-3.894531-14.097656 0-3.894531 3.894531-3.894531 10.207031 0 14.101563l57.898437 57.898437c1.875 1.890625 4.4375 2.9375 7.101563 2.902344 2.582031.023437 5.066406-.984375 6.898437-2.800781l102.101563-97.5c1.910156-1.828126 3.019531-4.34375 3.074219-6.988282.054687-2.644531-.941406-5.203125-2.773438-7.113281-3.847656-3.984375-10.191406-4.117187-14.203125-.300781zm0 0" fill="#1ae5be"/><path d="m221.652344 3.105469-.101563-.101563c-1.886719-1.945312-4.488281-3.0312498-7.199219-2.99999975-.367187-.01562505-.738281.01562495-1.097656.10156275h-161.203125c-28.710937.011719-51.9843748 23.285156-51.9999998 52v336c.015625 28.710937 23.2890628 51.984375 51.9999998 52h233.800781c28.714844-.015625 51.988282-23.289063 52-52v-264.902344c-.019531-2.648437-1.058593-5.191406-2.898437-7.097656zm2.699218 30.898437 79.601563 79.398438h-47.601563c-17.652343-.050782-31.949218-14.347656-32-32zm61.5 385.898438h-233.800781c-17.652343-.050782-31.945312-14.347656-32-32v-336c.054688-17.648438 14.347657-31.945313 32-32h152.300781v61.5c.015626 28.714844 23.289063 51.988281 52 52h61.5v254.5c-.015624 17.667968-14.332031 31.984375-32 32zm0 0" fill="#0635c9"/></svg>