<?xml version="1.0" encoding="iso-8859-1"?>
<!-- Generator: Adobe Illustrator 19.0.0, SVG Export Plug-In . SVG Version: 6.00 Build 0)  -->
<svg version="1.1" id="Layer_1" xmlns="http://www.w3.org/2000/svg" xmlns:xlink="http://www.w3.org/1999/xlink" x="0px" y="0px"
	 viewBox="0 0 490 490" style="enable-background:new 0 0 490 490;" xml:space="preserve">
<g>
	<path style="fill:#FBB03B;" d="M215.555,361.395c3.918,12.401,15.529,21.417,29.208,21.417c16.887,0,30.625-13.738,30.625-30.624
		v-1.268c-16.71,6.826-34.991,10.597-54.157,10.597C219.329,361.517,217.438,361.469,215.555,361.395z"/>
	<path style="fill:#FBB03B;" d="M275.387,85.487v-16.58c0-8.965-2.224-17.416-6.131-24.849c-7.954-0.949-16.046-1.451-24.256-1.451
		c-26.681,0-52.153,5.167-75.483,14.537c-0.852,3.788-1.316,7.721-1.316,11.763v16.119c16.403-6.537,34.295-10.137,53.03-10.137
		C240.396,74.889,258.677,78.661,275.387,85.487z"/>
	<path style="fill:#FBB03B;" d="M152.888,344.203c-44.658-24.274-74.971-71.596-74.971-126s30.314-101.726,74.971-125.999V68.907
		c0-1.437,0.059-2.859,0.146-4.274C87.339,98.148,42.35,166.447,42.35,245.257c0,80.775,47.264,150.504,115.64,183.062
		c-3.302-9.461-5.103-19.62-5.103-30.193v-53.923H152.888z"/>
	<path style="fill:#FBB03B;" d="M290.7,352.188c0,25.33-20.607,45.937-45.937,45.937c-22.709,0-41.611-16.568-45.281-38.249
		c-10.878-1.656-21.351-4.539-31.281-8.496v46.745c0,14.107,3.851,27.324,10.533,38.686c20.766,7.183,43.058,11.095,66.266,11.095
		c22.986,0,45.075-3.834,65.671-10.885c6.758-11.408,10.654-24.702,10.654-38.896v-77.369c-9.113,8.896-19.406,16.587-30.625,22.817
		V352.188z"/>
	<path style="fill:#FBB03B;" d="M447.65,245.257c0-97.48-68.832-178.873-160.54-198.257c2.316,6.887,3.591,14.249,3.591,21.907
		v23.927c11.219,6.23,21.511,13.92,30.625,22.817v-16.12c0-4.228,3.428-7.656,7.656-7.656c4.229,0,7.656,3.428,7.656,7.656v33.699
		c17.536,23.777,27.907,53.162,27.907,84.973s-10.371,61.196-27.907,84.973v94.949c0,10.672-1.835,20.922-5.196,30.459
		C400.123,396.142,447.65,326.254,447.65,245.257z"/>
	<path style="fill:#FCC062;" d="M294.04,199.061c0,8.696-1.167,17.118-3.34,25.126v119.386c11.219-6.23,21.511-13.92,30.625-22.817
		V115.65c-9.113-8.896-19.406-16.587-30.625-22.817v81.101C292.873,181.942,294.04,190.365,294.04,199.061z"/>
	<path style="fill:#FCC062;" d="M198.825,103.364v-3.833c0-4.228,3.428-7.656,7.656-7.656c4.229,0,7.656,3.428,7.656,7.656v5.132
		c25.039,4.161,46.79,18.037,61.249,37.63V85.487c-16.71-6.826-34.991-10.597-54.157-10.597c-18.734,0-36.627,3.6-53.03,10.137
		v23.179c9.476-3.142,19.606-4.847,30.136-4.847C198.5,103.357,198.662,103.363,198.825,103.364z"/>
	<path style="fill:#FCC062;" d="M198.825,352.188v-57.43c-0.163,0.001-0.325,0.006-0.488,0.006c-10.53,0-20.66-1.706-30.136-4.847
		v61.464c9.929,3.957,20.403,6.84,31.281,8.496C199.057,357.375,198.825,354.808,198.825,352.188z"/>
	<path style="fill:#FCC062;" d="M214.138,293.458v58.73c0,3.207,0.498,6.3,1.417,9.207c1.884,0.073,3.774,0.122,5.676,0.122
		c19.165,0,37.447-3.772,54.157-10.597v-95.092C260.928,275.42,239.177,289.297,214.138,293.458z"/>
	<path style="fill:#FCC062;" d="M364.544,218.203c0-31.811-10.371-61.196-27.907-84.973v169.946
		C354.173,279.399,364.544,250.014,364.544,218.203z"/>
	<path style="fill:#FCC062;" d="M77.916,218.203c0,54.403,30.314,101.726,74.971,126v-60.901
		c-29.925-16.179-50.254-47.835-50.254-84.241s20.329-68.062,50.254-84.241V92.204C108.23,116.477,77.916,163.8,77.916,218.203z"/>
	<path style="fill:#FDD089;" d="M198.825,294.757V103.364c-0.163-0.001-0.325-0.006-0.488-0.006c-10.53,0-20.66,1.706-30.136,4.847
		v181.711c9.476,3.142,19.606,4.847,30.136,4.847C198.5,294.763,198.662,294.758,198.825,294.757z"/>
	<path style="fill:#FDD089;" d="M102.634,199.061c0,36.406,20.329,68.062,50.254,84.241V114.82
		C122.963,130.998,102.634,162.654,102.634,199.061z"/>
	<path style="fill:#FDD089;" d="M290.7,173.935v50.252c2.173-8.008,3.34-16.43,3.34-25.126
		C294.04,190.365,292.873,181.942,290.7,173.935z"/>
	<path style="fill:#FDD089;" d="M214.138,104.663v188.794c25.039-4.161,46.79-18.037,61.249-37.63V142.294
		C260.928,122.701,239.177,108.824,214.138,104.663z"/>
	<path d="M336.637,303.176V133.23V99.531c0-4.228-3.428-7.656-7.656-7.656c-4.229,0-7.656,3.428-7.656,7.656v16.119v205.106v77.369
		c0,14.193-3.896,27.488-10.654,38.896c-13.343,22.524-37.885,37.667-65.908,37.667c-28.11,0-52.714-15.237-66.029-37.876
		c-6.682-11.361-10.533-24.579-10.533-38.686V351.38v-61.464V108.205V85.026V68.907c0-4.042,0.464-7.975,1.316-11.763
		c5.377-23.91,26.767-41.831,52.277-41.831c20.587,0,38.489,11.674,47.462,28.745c3.908,7.433,6.131,15.884,6.131,24.849v16.58
		v56.807v113.534v95.092v1.268c0,16.886-13.738,30.624-30.625,30.624c-13.679,0-25.29-9.016-29.208-21.417
		c-0.919-2.908-1.417-6-1.417-9.207v-58.73V104.663v-5.132c0-4.228-3.428-7.656-7.656-7.656c-4.229,0-7.656,3.428-7.656,7.656v3.833
		v191.393v57.43c0,2.621,0.232,5.187,0.656,7.689c3.671,21.681,22.572,38.249,45.281,38.249c25.33,0,45.937-20.607,45.937-45.937
		v-8.615V224.186v-50.252v-81.1V68.907c0-7.658-1.275-15.019-3.591-21.907c-9.176-27.284-34.978-47-65.315-47
		c-36.558,0-66.544,28.622-68.76,64.633c-0.087,1.415-0.146,2.837-0.146,4.274v23.297v22.616v168.482v60.901v53.922
		c0,10.573,1.801,20.732,5.103,30.193C170.508,464.191,204.676,490,244.762,490c39.988,0,74.085-25.682,86.679-61.416
		c3.361-9.537,5.196-19.787,5.196-30.459V303.176z"/>
</g>
<g>
</g>
<g>
</g>
<g>
</g>
<g>
</g>
<g>
</g>
<g>
</g>
<g>
</g>
<g>
</g>
<g>
</g>
<g>
</g>
<g>
</g>
<g>
</g>
<g>
</g>
<g>
</g>
<g>
</g>
</svg>
