<svg id="color" enable-background="new 0 0 24 24" height="512" viewBox="0 0 24 24" width="512" xmlns="http://www.w3.org/2000/svg"><path d="m17.5 13c-1.93 0-3.5-1.57-3.5-3.5v-5.25c0-1.241 1.01-2.25 2.25-2.25s2.25 1.009 2.25 2.25v5c0 .414-.336.75-.75.75s-.75-.336-.75-.75v-5c0-.414-.337-.75-.75-.75s-.75.336-.75.75v5.25c0 1.103.897 2 2 2s2-.897 2-2v-6.75c0-.414.336-.75.75-.75s.75.336.75.75v6.75c0 1.93-1.57 3.5-3.5 3.5z" fill="#2196f3"/><path d="m16.25 2c-1.24 0-2.25 1.01-2.25 2.25v5.25c0 1.93 1.57 3.5 3.5 3.5.084 0 .167-.003.25-.009v-1.507c-.082.01-.165.016-.25.016-1.103 0-2-.896-2-2v-5.25c0-.414.337-.75.75-.75s.75.336.75.75v5c0 .414.336.75.75.75v-7.425c-.398-.357-.924-.575-1.5-.575z" fill="#1d83d4"/><path d="m23 7.62v1.88c0 3.03-2.47 5.5-5.5 5.5s-5.5-2.47-5.5-5.5v-2.5h-1.59l-.17-.07-1.42-1.42c-.33-.33-.77-.51-1.23-.51h-4.84c-1.52 0-2.75 1.23-2.75 2.75v12.5c0 1.52 1.23 2.75 2.75 2.75h18.5c1.52 0 2.75-1.23 2.75-2.75v-10.5c0-.85-.39-1.62-1-2.13z" fill="#607d8b"/><path d="m7.59 5h-4.84c-1.52 0-2.75 1.23-2.75 2.75v12.5c0 1.52 1.23 2.75 2.75 2.75h9.25v-13.5-2.5h-1.59l-.17-.07-1.42-1.42c-.33-.33-.77-.51-1.23-.51z" fill="#546d79"/></svg>