<svg height="512" viewBox="0 0 55 60" width="512" xmlns="http://www.w3.org/2000/svg"><g id="Page-1" fill="none" fill-rule="evenodd"><g id="022---Cross-File" fill-rule="nonzero" transform="translate(-1)"><g id="Icons" transform="translate(2 1)"><path id="Shape" d="m5 4c0-2.209139 1.790861-4 4-4h40c2.209139 0 4 1.790861 4 4v40l-12 12h-32c-2.209139 0-4-1.790861-4-4z" fill="#ffe0b2"/><path id="Shape" d="m49 0h-3c2.209139 0 4 1.790861 4 4v40l-12 12h3l12-12v-40c0-2.209139-1.790861-4-4-4z" fill="#dfc49c"/><path id="Shape" d="m41 56v-8c0-2.209139 1.790861-4 4-4h8" fill="#91562d"/><path id="Shape" d="m19.832 43 10.246-9.836c.7731228-.7423979 1.0914531-1.8408579.835079-2.8816008-.256374-1.0407429-1.0485032-1.8656551-2.078-2.164-1.0294968-.298345-2.1399563-.0247971-2.913079.7176008l-10.422 10.005-10.422-10.005c-.77312273-.7423979-1.88358218-1.0159458-2.913079-.7176008-1.02949682.2983449-1.82162596 1.1232571-2.07800002 2.164-.25637407 1.0407429.06195626 2.1392029.83507902 2.8816008l10.246 9.836-10.246 9.836c-1.19514416 1.1476477-1.23364765 3.0468558-.08599995 4.242 1.14764769 1.1951441 3.04685574 1.2336477 4.24199995.086l10.422-10.005 10.422 10.005c1.1951442 1.1476476 3.0943522 1.1091441 4.2419999-.0860001s1.1091442-3.0943522-.0859999-4.2419999z" fill="#e91e63"/><path id="Shape" d="m19.832 43 10.246-9.836c1.0760511-1.055329 1.2020635-2.7452015.2944327-3.948452-.9076308-1.2032504-2.5671083-1.5462998-3.8774327-.801548.827218.4597463 1.3847264 1.2873279 1.5000184 2.2266703.1152919.9393423-.2255343 1.8771827-.9170184 2.5233297l-10.246 9.836 10.246 9.836c.5739681.5510978.9054862 1.3076448.9216146 2.1031874s-.2844543 1.5649045-.8356146 2.1388126c-.197846.1998505-.4230997.3705585-.669.507 1.3099933.7429601 2.9677885.3995458 3.8748348-.8026767.9070464-1.2022225.7821889-2.890603-.2918348-3.9463233z" fill="#ad1457"/></g><g id="Layer_2" fill="#000"><path id="Shape" d="m56 5c-.0033061-2.76005315-2.2399468-4.99669388-5-5h-40c-2.76005315.00330612-4.99669388 2.23994685-5 5v19c0 .5522847.44771525 1 1 1s1-.4477153 1-1v-19c0-1.65685425 1.34314575-3 3-3h40c1.6568542 0 3 1.34314575 3 3v39h-7c-2.7600532.0033061-4.9966939 2.2399468-5 5v7h-4c-.5522847 0-1 .4477153-1 1s.4477153 1 1 1h5c.2651948-.0000566.5195073-.1054506.707-.293l12-12c.1875494-.1874927.2929434-.4418052.293-.707zm-9 41h5.586l-8.586 8.586v-5.586c0-1.6568542 1.3431458-3 3-3z"/><path id="Shape" d="m15 6h-2c-.5522847 0-1 .44771525-1 1s.4477153 1 1 1h2c.5522847 0 1-.44771525 1-1s-.4477153-1-1-1z"/><path id="Shape" d="m49 6h-30c-.5522847 0-1 .44771525-1 1s.4477153 1 1 1h30c.5522847 0 1-.44771525 1-1s-.4477153-1-1-1z"/><path id="Shape" d="m15 12h-2c-.5522847 0-1 .4477153-1 1s.4477153 1 1 1h2c.5522847 0 1-.4477153 1-1s-.4477153-1-1-1z"/><path id="Shape" d="m19 14h23c.5522847 0 1-.4477153 1-1s-.4477153-1-1-1h-23c-.5522847 0-1 .4477153-1 1s.4477153 1 1 1z"/><path id="Shape" d="m15 18h-2c-.5522847 0-1 .4477153-1 1s.4477153 1 1 1h2c.5522847 0 1-.4477153 1-1s-.4477153-1-1-1z"/><path id="Shape" d="m19 20h16c.5522847 0 1-.4477153 1-1s-.4477153-1-1-1h-16c-.5522847 0-1 .4477153-1 1s.4477153 1 1 1z"/><path id="Shape" d="m52 21c0-.5522847-.4477153-1-1-1s-1 .4477153-1 1v14c0 .5522847.4477153 1 1 1s1-.4477153 1-1z"/><path id="Shape" d="m51 38c-.5522847 0-1 .4477153-1 1v2c0 .5522847.4477153 1 1 1s1-.4477153 1-1v-2c0-.5522847-.4477153-1-1-1z"/><path id="Shape" d="m1 55.918c-.03322753 1.6177836.91150907 3.0962321 2.39355371 3.7457485 1.48204465.6495165 3.20942973.3421441 4.37644629-.7787485l9.73-9.34 9.729 9.34c1.0281526 1.003902 2.5157917 1.3791603 3.8970994.983047 1.3813078-.3961134 2.4439966-1.5027213 2.783877-2.8989298.3398804-1.3962086-.0952826-2.86744-1.1399764-3.8541172l-9.494-9.115 9.494-9.115c1.1672389-1.1203163 1.544661-2.8334572.9562683-4.3405568-.5883927-1.5070997-2.0267208-2.5113463-3.6442683-2.5444432-1.06178-.0261491-2.0894982.3756412-2.852 1.115l-9.73 9.34-9.729-9.34c-.76525435-.7348374-1.7910953-1.1355552-2.85181915-1.1139881-1.06072385.021567-2.06942861.463652-2.80418085 1.2289881-1.52955909 1.5934468-1.47807634 4.125055.115 5.655l9.494 9.115-9.494 9.115c-.76857201.7320919-1.21161082 1.7417162-1.23 2.803zm2.614-1.361 10.246-9.836c.1961845-.188548.3070649-.4488995.3070649-.721s-.1108804-.532452-.3070649-.721l-10.245-9.836c-.58397742-.5601052-.77292013-1.4169056-.47868026-2.1706764.29423986-.7537707 1.01368075-1.2559771 1.82268026-1.2723236.53120754-.0154396 1.04589381.1855984 1.426.557l10.423 10.006c.3868237.3708033.9971763.3708033 1.384 0l10.423-10.006c.3784859-.3739047.8942871-.5753783 1.426-.557.8089995.0163465 1.5284404.5185529 1.8226803 1.2723236.2942398.7537708.1052971 1.6105712-.4786803 2.1706764l-10.245 9.836c-.1961845.188548-.3070649.4488995-.3070649.721s.1108804.532452.3070649.721l10.245 9.836c.3826.3674434.6035514.8718327.6142411 1.402194.0106897.5303614-.1897579 1.0432442-.5572411 1.425806-.7758782.7706139-2.0201675.7961423-2.827.058l-10.423-10c-.3868237-.3708033-.9971763-.3708033-1.384 0l-10.423 10c-.80677866.7392948-2.05221169.7137519-2.828-.058-.36735419-.3826926-.56762436-.8956507-.55674705-1.4260132.0108773-.5303625.23201094-1.034678.61474705-1.4019868z"/></g></g></g></svg>