<svg height="512" viewBox="0 0 58 58" width="512" xmlns="http://www.w3.org/2000/svg"><g id="Page-1" fill="none" fill-rule="evenodd"><g id="135---Upload-File" fill-rule="nonzero"><path id="Shape" d="m13 0h27c2.209139 0 4 1.790861 4 4v46c0 2.209139-1.790861 4-4 4h-36c-2.209139 0-4-1.790861-4-4v-37z" fill="#b0d3f0"/><path id="Shape" d="m13 0v9c0 2.209139-1.790861 4-4 4h-9z" fill="#90bae1"/><path id="Shape" d="m34 5h-6c-.5522847 0-1-.44771525-1-1s.4477153-1 1-1h6c.5522847 0 1 .44771525 1 1s-.4477153 1-1 1z" fill="#ecf0f1"/><path id="Shape" d="m40 5h-2c-.5522847 0-1-.44771525-1-1s.4477153-1 1-1h2c.5522847 0 1 .44771525 1 1s-.4477153 1-1 1z" fill="#ecf0f1"/><g fill="#2980ba"><path id="Shape" d="m17 19h-9c-.55228475 0-1-.4477153-1-1s.44771525-1 1-1h9c.5522847 0 1 .4477153 1 1s-.4477153 1-1 1z"/><path id="Shape" d="m30 19h-8c-.5522847 0-1-.4477153-1-1s.4477153-1 1-1h8c.5522847 0 1 .4477153 1 1s-.4477153 1-1 1z"/><path id="Shape" d="m23 24h-15c-.55228475 0-1-.4477153-1-1s.44771525-1 1-1h15c.5522847 0 1 .4477153 1 1s-.4477153 1-1 1z"/><path id="Shape" d="m17 29h-9c-.55228475 0-1-.4477153-1-1s.44771525-1 1-1h9c.5522847 0 1 .4477153 1 1s-.4477153 1-1 1z"/></g><path id="Shape" d="m40 31.7c-2.4140699.8930859-4.4288624 2.6205577-5.68 4.87-1.3148871-.924088-2.88287-1.4199757-4.49-1.42-4.098463-.0798372-7.4887279 3.1717757-7.58 7.27.0025703 1.2394906.3301312 2.4566379.95 3.53-2.4876122.8596901-4.1679958 3.1882217-4.2 5.82-.0024343.7641659.143604 1.5215278.43 2.23 1.0189395 2.4458857 3.4205125 4.0284709 6.07 4h26c3.5145186.0725729 6.4234906-2.7155649 6.5-6.23-.0336536-2.6864296-1.7814378-5.0503682-4.34-5.87.7128881-1.4002957 1.0862834-2.9486873 1.09-4.52-.0468981-4.290754-2.7296379-8.1101806-6.75-9.61z" fill="#3b97d3"/><path id="Shape" d="m44 45h3c.5522847 0 1-.4477153 1-1v-21c0-.5522847.4477153-1 1-1h2.969c.3811432.0002282.7292738-.2162252.8976845-.5581433.1684106-.3419182.1278129-.7498383-.1046845-1.0518567l-7.969-10.36c-.1892765-.24637386-.4823142-.39077837-.793-.39077837s-.6037235.14440451-.793.39077837l-7.969 10.36c-.2324974.3020184-.2730951.7099385-.1046845 1.0518567.1684107.3419181.5165413.5583715.8976845.5581433h2.969c.5522847 0 1 .4477153 1 1v21c0 .5522847.4477153 1 1 1z" fill="#ff5364"/></g></g></svg>