<?xml version="1.0"?>
<svg xmlns="http://www.w3.org/2000/svg" xmlns:xlink="http://www.w3.org/1999/xlink" xmlns:svgjs="http://svgjs.com/svgjs" version="1.1" width="512" height="512" x="0" y="0" viewBox="0 0 45 45" style="enable-background:new 0 0 512 512" xml:space="preserve" class=""><g><script/>
<g xmlns="http://www.w3.org/2000/svg">
	<path d="M44.45,13.436c-0.476-0.591-1.192-0.936-1.95-0.936H40c0-1.381-1.119-2.5-2.5-2.5H30c-1.381,0-2.5,1.119-2.5,2.5h-15   c-1.172,0-2.186,0.814-2.439,1.958c0,0-5.059,22.862-5.059,23.042H2.5v-30H35C35,6.119,33.881,5,32.5,5h-30C1.119,5,0,6.119,0,7.5   v30C0,38.881,1.119,40,2.5,40h5h25h5c1.172,0,2.186-0.814,2.439-1.957l5-22.5C45.105,14.802,44.925,14.027,44.45,13.436z    M39.549,17.588l-6.781,6.783c-0.287,0.286-0.674,0.445-1.076,0.445c-0.403,0-0.791-0.16-1.076-0.445l-2.633-2.63   c-0.594-0.595-0.594-1.558,0.002-2.153c0.595-0.594,1.559-0.595,2.152,0l1.555,1.554l5.705-5.706c0.596-0.594,1.56-0.594,2.152,0   C40.145,16.03,40.145,16.995,39.549,17.588z" fill="#cfdb1c" data-original="#000000" style="" class=""/>
</g>
<g xmlns="http://www.w3.org/2000/svg">
</g>
<g xmlns="http://www.w3.org/2000/svg">
</g>
<g xmlns="http://www.w3.org/2000/svg">
</g>
<g xmlns="http://www.w3.org/2000/svg">
</g>
<g xmlns="http://www.w3.org/2000/svg">
</g>
<g xmlns="http://www.w3.org/2000/svg">
</g>
<g xmlns="http://www.w3.org/2000/svg">
</g>
<g xmlns="http://www.w3.org/2000/svg">
</g>
<g xmlns="http://www.w3.org/2000/svg">
</g>
<g xmlns="http://www.w3.org/2000/svg">
</g>
<g xmlns="http://www.w3.org/2000/svg">
</g>
<g xmlns="http://www.w3.org/2000/svg">
</g>
<g xmlns="http://www.w3.org/2000/svg">
</g>
<g xmlns="http://www.w3.org/2000/svg">
</g>
<g xmlns="http://www.w3.org/2000/svg">
</g>
</g></svg>
