<svg id="Layer_1" height="512" viewBox="0 0 512 512" width="512" xmlns="http://www.w3.org/2000/svg" data-name="Layer 1"><path d="m77.65 68.52h-28.01a10.6 10.6 0 0 0 -10.59 10.61v411.26a10.6 10.6 0 0 0 10.59 10.61h280.73a10.6 10.6 0 0 0 10.59-10.61v-26.02z" fill="#b3ccce"/><path d="m109.43 42.96h-31.18a10.608 10.608 0 0 0 -10.6 10.61v410.19a10.608 10.608 0 0 0 10.6 10.61h280.72a10.6 10.6 0 0 0 10.59-10.61v-29.22z" fill="#cee6ea"/><path d="m399.46 93.02-80.74-81.67a10.637 10.637 0 0 0 -2.7-.35h-205.99a10.608 10.608 0 0 0 -10.6 10.61v412.32a10.608 10.608 0 0 0 10.6 10.61h279.66a10.6 10.6 0 0 0 10.59-10.61v-336.8a10.653 10.653 0 0 0 -.82-4.11z" fill="#e1f5f9"/><path d="m399.46 93.02h-45.06a35.708 35.708 0 0 1 -35.68-35.75v-45.92a10.585 10.585 0 0 1 4.87 2.84l73.68 75.52a10.552 10.552 0 0 1 2.19 3.31z" fill="#cee6ea"/><circle cx="402.949" cy="336.467" fill="#b7d195" r="70"/><path d="m362.949 336.467a70.012 70.012 0 0 1 55-68.371 70 70 0 1 0 0 136.743 70.014 70.014 0 0 1 -55-68.372z" fill="#a2b283"/><path d="m129.43 433.93v-412.32a10.608 10.608 0 0 1 10.6-10.61h-30a10.608 10.608 0 0 0 -10.6 10.61v412.32a10.608 10.608 0 0 0 10.6 10.61h30a10.608 10.608 0 0 1 -10.6-10.61z" fill="#f8feff"/><g fill="#284268"><path d="m346.852 124.473h-25.867a6 6 0 1 0 0 12h25.867a6 6 0 0 0 0-12z"/><path d="m293.338 124.473a6 6 0 1 0 0 12h5.17a6 6 0 0 0 0-12z"/><path d="m151.807 124.473a6 6 0 0 0 0 12h118.756a6 6 0 0 0 0-12z"/><path d="m346.852 174.218h-95.068a6 6 0 0 0 0 12h95.068a6 6 0 0 0 0-12z"/><path d="m227.914 174.218a6 6 0 0 0 0 12h1.528a6 6 0 0 0 0-12z"/><path d="m206.042 174.218h-54.235a6 6 0 0 0 0 12h54.235a6 6 0 0 0 0-12z"/><path d="m346.852 223.964h-8.552a6 6 0 0 0 0 12h8.557a6 6 0 0 0 0-12z"/><path d="m315.944 223.964h-96.673a6 6 0 0 0 0 12h96.673a6 6 0 0 0 0-12z"/><path d="m151.807 235.964h44.811a6 6 0 0 0 0-12h-44.811a6 6 0 1 0 0 12z"/><path d="m296.735 273.709h-20.894a6 6 0 0 0 0 12h20.894a6 6 0 0 0 0-12z"/><path d="m259.756 279.709a6 6 0 0 0 -6-6h-52.024a6 6 0 0 0 0 12h52.024a6 6 0 0 0 6-6z"/><path d="m151.807 285.709h27.935a6 6 0 1 0 0-12h-27.935a6 6 0 1 0 0 12z"/><path d="m291.173 323.454h-27.929a6 6 0 0 0 0 12h27.929a6 6 0 0 0 0-12z"/><path d="m179.845 335.454h61.355a6 6 0 0 0 0-12h-61.355a6 6 0 1 0 0 12z"/><path d="m157.8 323.454h-5.989a6 6 0 1 0 0 12h5.989a6 6 0 0 0 0-12z"/><path d="m288.135 86.728h6.446a6 6 0 0 0 0-12h-6.446a6 6 0 0 0 0 12z"/><path d="m188.012 86.728h78.288a6 6 0 0 0 0-12h-78.29a6 6 0 0 0 0 12z"/><path d="m150.786 86.728h15.235a6 6 0 0 0 0-12h-15.235a6 6 0 0 0 0 12z"/><path d="m291.173 373.2h-65.517a6 6 0 0 0 0 12h65.517a6 6 0 0 0 0-12z"/><path d="m203.01 373.2h-24.186a6 6 0 0 0 0 12h24.186a6 6 0 1 0 0-12z"/><path d="m155.813 373.2h-4.006a6 6 0 1 0 0 12h4.006a6 6 0 0 0 0-12z"/><path d="m128.3 46.038a6 6 0 0 0 -6 6v6.3a6 6 0 0 0 12 0v-6.3a6 6 0 0 0 -6-6z"/><path d="m128.3 75.333a6 6 0 0 0 -6 6v99a6 6 0 0 0 12 0v-99a6 6 0 0 0 -6-6z"/><path d="m435.893 305.547-49.114 49.114-16.779-16.775a6 6 0 0 0 -8.484 8.484l21.018 21.019a6 6 0 0 0 8.485 0l53.357-53.358a6 6 0 0 0 -8.486-8.484z"/><path d="m406.815 260.564c-.178-.008-.354-.009-.531-.016v-163.42a16.538 16.538 0 0 0 -4.722-11.608l-73.675-75.52a16.683 16.683 0 0 0 -11.87-5h-205.99a16.622 16.622 0 0 0 -16.593 16.612v15.344h-15.187a16.622 16.622 0 0 0 -16.594 16.612v8.953h-12.008a16.622 16.622 0 0 0 -16.593 16.613v411.254a16.621 16.621 0 0 0 16.593 16.612h280.723a16.622 16.622 0 0 0 16.594-16.612v-10.019h12.009a16.621 16.621 0 0 0 16.592-16.612v-13.214h14.128a16.621 16.621 0 0 0 16.593-16.611v-21.542a76 76 0 0 0 .531-151.826zm-82.1-236.625 61.545 63.082h-31.86a29.749 29.749 0 0 1 -29.684-29.748zm10.246 466.449a4.608 4.608 0 0 1 -4.593 4.612h-280.723a4.608 4.608 0 0 1 -4.593-4.612v-411.254a4.608 4.608 0 0 1 4.593-4.613h12.008v389.236a16.622 16.622 0 0 0 16.594 16.612h256.715zm28.6-26.631a4.607 4.607 0 0 1 -4.592 4.612h-280.722a4.608 4.608 0 0 1 -4.594-4.612v-410.189a4.608 4.608 0 0 1 4.594-4.612h15.187v384.976a16.621 16.621 0 0 0 16.593 16.611h253.536zm35.289-63.418a63.961 63.961 0 0 1 -53.1-92.536 5.938 5.938 0 0 0 -1.157-6.846 6 6 0 0 0 -9.6 1.535 75.934 75.934 0 0 0 59.288 109.465v21.975a4.607 4.607 0 0 1 -4.593 4.611h-279.661a4.607 4.607 0 0 1 -4.593-4.611v-412.32a4.608 4.608 0 0 1 4.593-4.612h202.689v40.273a41.763 41.763 0 0 0 41.684 41.748h39.884v161.951a75.448 75.448 0 0 0 -29.638 9.889 5.987 5.987 0 0 0 -1.164 9.388 5.966 5.966 0 0 0 7.23.947 63.993 63.993 0 1 1 28.135 119.139z"/></g></svg>