<svg height="480pt" viewBox="-25 0 479 480" width="480pt" xmlns="http://www.w3.org/2000/svg"><g fill="#9bc9ff"><path d="m377.050781 239.425781c0 .40625.066407.796875.066407 1.222657 0-.410157-.058594-.816407-.066407-1.222657zm0 0"/><path d="m376.523438 250.230469v-.046875c.386718-3.164063.582031-6.347656.585937-9.535156 0-.410157-.058594-.800782-.066406-1.222657-.023438-2.824219-.199219-5.644531-.519531-8.449219v-.097656zm0 0"/><path d="m372.5625 266.894531c-.222656.632813-.429688 1.273438-.671875 1.90625.234375-.632812.449219-1.273437.671875-1.90625zm0 0"/><path d="m374.765625 221.34375c.125.542969.285156 1.082031.40625 1.601562-.121094-.546874-.246094-1.058593-.40625-1.601562zm0 0"/><path d="m376.523438 230.976562c.320312 2.804688.488281 5.625.511718 8.449219-.019531-2.824219-.1875-5.644531-.511718-8.449219zm0 0"/><path d="m372.058594 212.566406c.226562.601563.433594 1.210938.640625 1.816406-.175781-.605468-.414063-1.214843-.640625-1.816406zm0 0"/><path d="m374.996094 258.617188c-.136719.574218-.296875 1.152343-.449219 1.726562.152344-.574219.3125-1.144531.449219-1.726562zm0 0"/><path d="m377.117188 240.648438c-.007813 3.1875-.203126 6.371093-.59375 9.535156.390624-3.164063.589843-6.347656.59375-9.535156zm0 0"/><path d="m368.523438 204.398438c1.332031 2.65625 2.511718 5.382812 3.535156 8.167968-1.023438-2.785156-2.203125-5.511718-3.535156-8.167968zm0 0"/><path d="m374.546875 260.34375c-.5625 2.207031-1.226563 4.390625-1.984375 6.550781.753906-2.160156 1.414062-4.34375 1.984375-6.550781zm0 0"/><path d="m371.890625 268.800781c-.988281 2.640625-2.109375 5.230469-3.367187 7.757813 1.257812-2.527344 2.378906-5.117188 3.367187-7.757813zm0 0"/><path d="m374.996094 258.617188c.65625-2.738282 1.167968-5.507813 1.527344-8.296876v-.089843c-.359376 2.820312-.871094 5.621093-1.527344 8.386719zm0 0"/><path d="m376.523438 230.878906v-.160156c-.316407-2.605469-.765626-5.191406-1.351563-7.75.585937 2.613281 1.035156 5.253906 1.351563 7.910156zm0 0"/><path d="m372.699219 214.398438c.800781 2.304687 1.488281 4.625 2.066406 6.960937-.578125-2.347656-1.265625-4.667969-2.066406-6.960937zm0 0"/><path d="m245.164062 150.480469c39.800782-22.976563 89.964844-17.089844 123.359376 14.480469 2.890624 2.605468 5.566406 5.441406 8 8.480468v-149.441406c-.027344-8.824219-7.171876-15.972656-16-16h-248v80c0 8.835938-7.164063 16-16 16h-88v352c.027343 8.824219 7.175781 15.972656 16 16h336c8.828124-.027344 15.972656-7.175781 16-16v-46.078125l-8-13.84375-33.839844-58.558594c-50.640625 19.519531-107.78125-3.1875-131.210938-52.144531-23.429687-48.953125-5.273437-107.695312 41.691406-134.894531zm0 0"/></g><path d="m64.523438 224h104c4.417968 0 8-3.582031 8-8s-3.582032-8-8-8h-104c-4.417969 0-8 3.582031-8 8s3.582031 8 8 8zm0 0" fill="#1e81ce"/><path d="m64.523438 272h104c4.417968 0 8-3.582031 8-8s-3.582032-8-8-8h-104c-4.417969 0-8 3.582031-8 8s3.582031 8 8 8zm0 0" fill="#1e81ce"/><path d="m64.523438 320h120c4.417968 0 8-3.582031 8-8s-3.582032-8-8-8h-120c-4.417969 0-8 3.582031-8 8s3.582031 8 8 8zm0 0" fill="#1e81ce"/><path d="m232.523438 352h-168c-4.417969 0-8 3.582031-8 8s3.582031 8 8 8h168c4.417968 0 8-3.582031 8-8s-3.582032-8-8-8zm0 0" fill="#1e81ce"/><path d="m128.523438 176h56c4.417968 0 8-3.582031 8-8s-3.582032-8-8-8h-56c-4.417969 0-8 3.582031-8 8s3.582031 8 8 8zm0 0" fill="#1e81ce"/><path d="m64.523438 176h32c4.417968 0 8-3.582031 8-8s-3.582032-8-8-8h-32c-4.417969 0-8 3.582031-8 8s3.582031 8 8 8zm0 0" fill="#1e81ce"/><path d="m382.859375 220.800781c-.121094-.535156-.269531-1.066406-.40625-1.601562-.625-2.523438-1.367187-5.011719-2.226563-7.464844-.246093-.71875-.488281-1.429687-.75-2.140625-1.058593-2.84375-2.265624-5.625-3.617187-8.335938-.039063-.082031-.0625-.160156-.101563-.242187v-.113281c-.699218-1.488282-1.488281-2.902344-2.328124-4.390625-19.925782-34.476563-60.519532-51.277344-98.984376-40.96875-38.460937 10.3125-65.207031 45.167969-65.210937 84.988281-.003906 39.824219 26.734375 74.683594 65.195313 85.003906 7.453124 2.003906 15.136718 3.019532 22.855468 3.023438 33.152344-.113282 63.4375-18.8125 78.398438-48.398438l.082031-.207031c1.378906-2.789063 2.613281-5.644531 3.695313-8.5625.238281-.636719.445312-1.269531.671874-1.910156.941407-2.667969 1.742188-5.382813 2.398438-8.152344.082031-.296875.167969-.59375.234375-.894531.722656-3.015625 1.28125-6.0625 1.679687-9.136719.046876-.324219.070313-.648437.078126-.976563v-.121093c.765624-6.679688.765624-13.421875 0-20.101563 0-.105468 0-.203125 0-.296875-.390626-3.027343-.945313-6.035156-1.664063-9zm-49.703125 82.03125c-16.53125 9.574219-36.191406 12.179688-54.640625 7.234375-18.453125-4.945312-34.175781-17.03125-43.703125-33.585937-19.757812-34.410157-7.953125-78.316407 26.394531-98.179688 34.347657-19.859375 78.292969-8.195312 98.261719 26.089844.605469 1.082031 1.222656 2.183594 1.863281 3.511719l.054688.128906.136719.289062c1.125 2.253907 2.125 4.566407 3 6.925782.160156.417968.304687.800781.449218 1.257812.839844 2.359375 1.554688 4.765625 2.144532 7.199219l.0625.234375c.582031 2.527344 1.03125 5.085938 1.34375 7.664062v17.644532c-.3125 2.613281-.765626 5.207031-1.359376 7.769531v.121094c-.59375 2.433593-1.308593 4.839843-2.152343 7.199219-.160157.457031-.3125.910156-.488281 1.359374-.898438 2.457032-1.933594 4.859376-3.101563 7.199219v.050781c-6.273437 12.527344-16.105469 22.925782-28.265625 29.886719zm0 0" fill="#1e81ce"/><path d="m346.820312 214.632812c-.351562-.746093-.753906-1.449218-1.152343-2.152343-15.46875-26.757813-49.691407-35.925781-76.464844-20.480469-3.828125 2.210938-5.140625 7.105469-2.929687 10.933594 2.207031 3.828125 7.101562 5.140625 10.929687 2.929687 6.039063-3.488281 12.890625-5.332031 19.863281-5.34375 14.402344.023438 27.695313 7.734375 34.867188 20.222657l.871094 1.691406c1.945312 3.976562 6.746093 5.621094 10.722656 3.675781 3.976562-1.949219 5.621094-6.75 3.675781-10.726563zm0 0" fill="#1e81ce"/><path d="m425.933594 415.609375-53.265625-92.371094c.425781-.398437.847656-.796875 1.257812-1.175781 3.070313-2.851562 5.964844-5.890625 8.671875-9.09375 30.484375-36.121094 35.101563-87.460938 11.550782-128.441406-2.8125-4.882813-6.03125-9.523438-9.625-13.863282v-146.664062c0-13.253906-10.746094-24-24-24h-248c-.167969 0-.328126.078125-.496094.0976562-.636719.0390628-1.265625.1562498-1.871094.3515628-.273438.066406-.539062.148437-.800781.246093-.835938.34375-1.613281.828126-2.289063 1.433594l-104 96c-.710937.683594-1.285156 1.5-1.695312 2.398438-.117188.261718-.21875.527344-.304688.800781-.261718.714844-.417968 1.464844-.460937 2.222656 0 .167969-.105469.320313-.105469.488281v351.960938c0 13.253906 10.746094 24 24 24h336.023438c13.253906 0 24-10.746094 24-24v-16.230469c6.636718 11.339844 21.183593 15.199219 32.570312 8.636719h.046875c5.527344-3.171875 9.5625-8.414062 11.214844-14.570312 1.652343-6.15625.78125-12.714844-2.414063-18.226563zm-55.480469-113.066406c-2.332031 2.761719-4.824219 5.378906-7.464844 7.839843-1.746093 1.671876-3.632812 3.351563-5.527343 4.882813-7.789063 6.199219-16.464844 11.195313-25.738282 14.8125-44.132812 16.820313-93.957031-.785156-117.726562-41.597656-26.515625-45.894531-10.78125-104.597657 35.136718-131.074219 3.363282-1.902344 6.835938-3.601562 10.398438-5.09375.730469-.3125 1.449219-.640625 2.175781-.929688 3.371094-1.355468 6.816407-2.519531 10.320313-3.488281.6875-.191406 1.375-.335937 2.074218-.511719 3.261719-.824218 6.5625-1.480468 9.894532-1.957031.441406-.066406.871094-.160156 1.3125-.21875 3.5625-.433593 7.144531-.667969 10.734375-.695312h2.832031c1.746094 0 3.488281.121093 5.234375.25 1.023437.070312 2.054687.125 3.085937.238281 2.007813.207031 4 .511719 5.992188.847656.738281.128906 1.480469.207032 2.214844.351563 2.722656.535156 5.414062 1.183593 8.082031 1.945312.582031.160157 1.152344.382813 1.726563.558594 2.089843.648437 4.160156 1.335937 6.199218 2.128906.90625.34375 1.792969.742188 2.683594 1.121094 1.710938.71875 3.40625 1.472656 5.078125 2.292969.945313.464844 1.878906.953125 2.816406 1.457031 1.601563.855469 3.183594 1.757813 4.75 2.710937.90625.554688 1.808594 1.097657 2.699219 1.683594 1.597656 1.070313 3.238281 2.222656 4.796875 3.40625.738281.550782 1.488281 1.0625 2.210937 1.601563 2.277344 1.796875 4.511719 3.695312 6.65625 5.71875 2.671876 2.414062 5.144532 5.039062 7.390626 7.855469 3.714843 4.246093 6.996093 8.847656 9.800781 13.746093 20.230469 35.117188 16.292969 79.144531-9.839844 110.117188zm-265.929687-276.269531v61.726562c0 4.417969-3.582032 8-8 8h-67.535157zm256 437.726562h-336c-4.417969 0-8-3.582031-8-8v-344h80c13.253906 0 24-10.746094 24-24v-72h240c4.417968 0 8 3.582031 8 8v130.273438c-.238282-.203126-.488282-.371094-.726563-.5625-1.113281-.910157-2.257813-1.75-3.402344-2.605469-1.140625-.859375-2.46875-1.890625-3.734375-2.769531-1.265625-.878907-2.398437-1.601563-3.542968-2.320313-1.144532-.71875-2.59375-1.664063-3.921876-2.398437-1.199218-.707032-2.398437-1.351563-3.640624-2.007813-1.359376-.722656-2.710938-1.441406-4.09375-2.105469-1.234376-.601562-2.472657-1.144531-3.722657-1.695312-1.414062-.617188-2.824219-1.214844-4.253906-1.777344-1.257813-.488281-2.511719-.941406-3.785156-1.382812-1.464844-.503907-2.925781-.992188-4.40625-1.441407-1.265625-.382812-2.535157-.734375-3.816407-1.070312-1.503906-.402344-3.023437-.800781-4.542968-1.097657-1.273438-.277343-2.539063-.535156-3.816406-.800781-1.554688-.285156-3.113282-.527343-4.679688-.742187-1.265625-.167969-2.539062-.335938-3.808594-.464844-1.601562-.167969-3.199218-.277344-4.800781-.375-1.257813-.070312-2.511719-.144531-3.769531-.175781-1.597656 0-3.253906 0-4.886719 0-1.238281 0-2.480469 0-3.710937.105469-1.65625.085937-3.3125.246093-4.96875.40625-1.214844.121093-2.398438.222656-3.640626.375-1.679687.226562-3.359374.527343-5.039062.800781-1.175781.207031-2.351562.390625-3.519531.640625-1.722657.367187-3.433594.800781-5.136719 1.261718-1.121094.296876-2.25.554688-3.359375.882813-1.785156.527344-3.554687 1.160156-5.320313 1.773437-1.015624.363282-2.039062.664063-3.054687 1.058594-1.9375.734375-3.851563 1.597656-5.761719 2.445313-.800781.371093-1.65625.679687-2.472656 1.074219-2.707031 1.285156-5.390625 2.6875-8.039062 4.207031-53.578126 30.90625-71.9375 99.410156-40.992188 152.96875 1.496094 2.582031 3.105469 5.0625 4.800781 7.488281.511719.734375 1.046875 1.445312 1.597657 2.175781 1.242187 1.695313 2.503906 3.359375 3.824218 4.96875.609375.734375 1.210938 1.472657 1.824219 2.191407 1.480469 1.710937 3.007813 3.367187 4.578125 4.984374.453125.464844.886719.957032 1.359375 1.421876 2.046875 2.027343 4.164063 3.96875 6.351563 5.824218.488281.417969 1 .800782 1.488281 1.199219 1.742187 1.425781 3.511719 2.800781 5.320312 4.113281.742188.535156 1.496094 1.054688 2.246094 1.601563 1.707031 1.175781 3.441406 2.285156 5.210937 3.367187.710938.429688 1.414063.878906 2.140626 1.304688 4.914062 2.851562 10.035156 5.324218 15.320312 7.40625.800781.320312 1.601562.601562 2.402344.898437 1.890625.703125 3.808594 1.351563 5.742187 1.949219.898438.28125 1.792969.554688 2.695313.800781 2.082031.585938 4.167968 1.105469 6.28125 1.601563.679687.152344 1.351562.335937 2.039062.46875 2.742188.535156 5.507813.988281 8.296875 1.363281.726563.09375 1.457031.132813 2.183594.214844 2.113281.222656 4.226563.398437 6.34375.503906.984375.046875 1.96875.070313 2.960937.097656.800782 0 1.6875.085938 2.535157.085938.847656 0 1.601562-.097657 2.34375-.113281 1.839843 0 3.6875-.117188 5.527343-.246094 1.425782-.105469 2.851563-.234375 4.273438-.382813 1.839844-.210937 3.679688-.476562 5.519531-.800781 1.425781-.226562 2.839844-.472656 4.257813-.761719 1.832031-.367187 3.640625-.800781 5.453125-1.269531 1.425781-.371094 2.851562-.738281 4.265625-1.160156.585937-.175782 1.183594-.289063 1.769531-.480469l37.414063 64.824219v43.878906c0 4.417969-3.582032 8-8 8zm52.351562-34.304688c-.53125 2.027344-1.851562 3.757813-3.671875 4.800782-1.832031 1.074218-4.019531 1.371094-6.074219.832031-2.050781-.542969-3.808594-1.875-4.875-3.710937l-14.707031-25.464844c-.039063-.074219-.054687-.152344-.09375-.222656l-37.378906-64.671876c2.402343-1.179687 4.800781-2.402343 7.082031-3.753906 2.28125-1.351562 4.550781-2.734375 6.808594-4.257812l52.109375 90.402344c1.0625 1.828124 1.351562 4.003906.800781 6.046874zm0 0" fill="#1e81ce"/></svg>