<svg id="Layer_1" height="512" viewBox="0 0 512 512" width="512" xmlns="http://www.w3.org/2000/svg" data-name="Layer 1"><path d="m479.58 279.371a1.417 1.417 0 0 1 .87 1.95l-19.73 46.59a.711.711 0 0 1 -1.28.02l-8.16-16.64a3.565 3.565 0 0 0 -4.36-1.76l-13.95 4.84c-18.94 8.1-19.99 18.94-25.73 35.08l-2.02 8.7a1.072 1.072 0 0 1 -2.06.28l-5.3-11.4c-8.07-20.78-2-40.08 15.14-47.87l23.85-10.81a3.587 3.587 0 0 0 1.78-4.75l-8.17-18.06a.707.707 0 0 1 .85-.97z" fill="#ff7178"/><path d="m333.33 475.431v14.96a10.608 10.608 0 0 1 -10.6 10.609h-280.72a10.6 10.6 0 0 1 -10.59-10.61v-411.259a10.6 10.6 0 0 1 10.59-10.61h18.01v395.24a10.6 10.6 0 0 0 10.59 10.61h262.72z" fill="#e2e4ed"/><path d="m361.93 445.611v18.15a10.6 10.6 0 0 1 -10.59 10.61h-280.73a10.6 10.6 0 0 1 -10.59-10.61v-410.19a10.6 10.6 0 0 1 10.59-10.61h21.19v390.97a10.6 10.6 0 0 0 10.59 10.61h259.54z" fill="#b0b5ca"/><path d="m391.83 93.021h-45.06a35.717 35.717 0 0 1 -35.69-35.75v-45.92a10.667 10.667 0 0 1 4.88 2.84l73.67 75.52a10.582 10.582 0 0 1 2.2 3.31z" fill="#b0b5ca"/><path d="m349.69 268.691h42.96v-171.56a10.649 10.649 0 0 0 -.82-4.11h-45.06a35.717 35.717 0 0 1 -35.69-35.75v-45.921a10.682 10.682 0 0 0 -2.7-.349h-205.99a10.6 10.6 0 0 0 -10.59 10.61v412.319a10.6 10.6 0 0 0 10.59 10.611h279.67a10.6 10.6 0 0 0 10.59-10.611v-33.109h-42.96a17.319 17.319 0 0 1 -17.3-17.331v-97.469a17.318 17.318 0 0 1 17.3-17.33z" fill="#e2e4ed"/><path d="m121.8 433.931v-412.32a10.6 10.6 0 0 1 10.59-10.611h-30a10.6 10.6 0 0 0 -10.59 10.611v412.32a10.6 10.6 0 0 0 10.59 10.61h30a10.6 10.6 0 0 1 -10.59-10.61z" fill="#d0d4e2"/><g fill="#284268"><path d="m323.351 136.473h25.866a6 6 0 0 0 0-12h-25.866a6 6 0 1 0 0 12z"/><path d="m289.7 130.473a6 6 0 0 0 6 6h5.17a6 6 0 0 0 0-12h-5.17a6 6 0 0 0 -6 6z"/><path d="m128.172 130.473a6 6 0 0 0 6 6h138.756a6 6 0 0 0 0-12h-138.756a6 6 0 0 0 -6 6z"/><path d="m238.149 180.218a6 6 0 0 0 6 6h105.068a6 6 0 0 0 0-12h-105.068a6 6 0 0 0 -6 6z"/><path d="m220.279 174.218a6 6 0 0 0 0 12h1.529a6 6 0 0 0 0-12z"/><path d="m198.407 174.218h-64.235a6 6 0 0 0 0 12h64.235a6 6 0 0 0 0-12z"/><path d="m349.217 223.964h-8.557a6 6 0 0 0 0 12h8.557a6 6 0 0 0 0-12z"/><path d="m318.31 223.964h-106.674a6 6 0 0 0 0 12h106.674a6 6 0 0 0 0-12z"/><path d="m134.172 235.964h54.811a6 6 0 0 0 0-12h-54.811a6 6 0 1 0 0 12z"/><path d="m289.1 273.709h-20.894a6 6 0 0 0 0 12h20.894a6 6 0 0 0 0-12z"/><path d="m252.122 279.709a6 6 0 0 0 -6-6h-52.022a6 6 0 0 0 0 12h52.024a6 6 0 0 0 5.998-6z"/><path d="m134.172 285.709h37.935a6 6 0 1 0 0-12h-37.935a6 6 0 1 0 0 12z"/><path d="m283.538 323.454h-27.928a6 6 0 0 0 0 12h27.928a6 6 0 0 0 0-12z"/><path d="m162.21 335.454h71.355a6 6 0 0 0 0-12h-71.355a6 6 0 1 0 0 12z"/><path d="m140.161 323.454h-5.989a6 6 0 1 0 0 12h5.989a6 6 0 0 0 0-12z"/><path d="m280.5 86.727h6.446a6 6 0 0 0 0-12h-6.446a6 6 0 0 0 0 12z"/><path d="m170.377 86.727h88.29a6 6 0 0 0 0-12h-88.29a6 6 0 0 0 0 12z"/><path d="m133.151 86.727h15.236a6 6 0 0 0 0-12h-15.236a6 6 0 0 0 0 12z"/><path d="m481.343 273.633-48.278-14.8a6.706 6.706 0 0 0 -8.073 9.18l7.184 15.871-21.66 9.812c-19.92 9.058-27.423 31.885-18.247 55.512l5.409 11.673a7.072 7.072 0 0 0 13.426-1.553l1.9-8.189c.752-2.125 1.415-4.127 2.057-6.067 4.093-12.353 6.355-19.183 20.079-25.1l11.718-4.073 7.21 14.7a6.706 6.706 0 0 0 12.1-.166l19.791-46.72a7.416 7.416 0 0 0 -4.613-10.075zm-21.619 41.242-3.086-6.291a9.613 9.613 0 0 0 -11.693-4.725l-13.945 4.846-.388.15c-18.864 8.063-22.607 19.361-26.941 32.443q-.357 1.082-.728 2.19c-6.1-17.137-1.154-32.642 12.533-38.865l23.849-10.805a9.6 9.6 0 0 0 4.776-12.692l-3.343-7.384 32.205 9.873z"/><path d="m468.161 338.779a6 6 0 0 0 -6 6v38.711a11.324 11.324 0 0 1 -11.3 11.327h-101.17a11.324 11.324 0 0 1 -11.3-11.327v-97.47a11.324 11.324 0 0 1 11.3-11.327h59.294a6 6 0 0 0 0-12h-10.335v-165.565a16.535 16.535 0 0 0 -4.723-11.608l-73.675-75.515a16.678 16.678 0 0 0 -11.871-5.005h-205.989a16.622 16.622 0 0 0 -16.592 16.612v15.345h-15.188a16.621 16.621 0 0 0 -16.593 16.612v8.953h-12.009a16.621 16.621 0 0 0 -16.593 16.612v411.253a16.621 16.621 0 0 0 16.593 16.613h280.723a16.622 16.622 0 0 0 16.594-16.613v-10.017h12.008a16.622 16.622 0 0 0 16.594-16.612v-13.214h14.127a16.623 16.623 0 0 0 16.594-16.613v-27.114h52.215a23.338 23.338 0 0 0 23.3-23.327v-38.711a6 6 0 0 0 -6.004-6zm-89.534-251.757h-31.861a29.751 29.751 0 0 1 -29.685-29.749v-33.334zm-51.3 403.365a4.608 4.608 0 0 1 -4.594 4.613h-280.723a4.608 4.608 0 0 1 -4.593-4.613v-411.253a4.608 4.608 0 0 1 4.593-4.612h12.009v389.236a16.622 16.622 0 0 0 16.593 16.612h256.715zm28.6-26.629a4.608 4.608 0 0 1 -4.594 4.612h-280.721a4.608 4.608 0 0 1 -4.593-4.612v-410.189a4.608 4.608 0 0 1 4.593-4.612h15.188v384.974a16.622 16.622 0 0 0 16.593 16.613h253.536zm30.721-29.827a4.609 4.609 0 0 1 -4.594 4.613h-279.662a4.608 4.608 0 0 1 -4.593-4.613v-412.319a4.608 4.608 0 0 1 4.593-4.612h202.689v40.273a41.764 41.764 0 0 0 41.685 41.749h39.884v163.671h-36.959a23.337 23.337 0 0 0 -23.3 23.327v97.47a23.337 23.337 0 0 0 23.3 23.327h36.959z"/><path d="m283.538 373.2h-65.517a6 6 0 0 0 0 12h65.517a6 6 0 0 0 0-12z"/><path d="m195.375 373.2h-34.186a6 6 0 0 0 0 12h34.186a6 6 0 1 0 0-12z"/><path d="m138.178 373.2h-4.006a6 6 0 1 0 0 12h4.006a6 6 0 0 0 0-12z"/></g></svg>