<svg height="512" viewBox="0 0 58 58" width="512" xmlns="http://www.w3.org/2000/svg"><g id="Page-1" fill="none" fill-rule="evenodd"><g id="001---Folder-Tick" fill-rule="nonzero" transform="translate(-1)"><path id="Shape" d="m59 19v29c0 3.3137085-2.6862915 6-6 6h-46c-3.3137085 0-6-2.6862915-6-6v-44c0-2.209139 1.790861-4 4-4h22c2.209139 0 4 1.790861 4 4v2h18c2.209139 0 4 1.790861 4 4v3c3.3116533.0049563 5.9950437 2.6883467 6 6z" fill="#f0c419"/><path id="Shape" d="m53 10v3h-52v-9c0-2.209139 1.790861-4 4-4h22c2.209139 0 4 1.790861 4 4v2h18c2.209139 0 4 1.790861 4 4z" fill="#f29c1f"/><path id="Shape" d="m19 13h-4c-.5522847 0-1-.4477153-1-1s.4477153-1 1-1h4c.5522847 0 1 .4477153 1 1s-.4477153 1-1 1z" fill="#e57e25"/><path id="Shape" d="m26.3 30 1.262-1.753c.6262866-.8699417 1.6691076-1.3396811 2.7356426-1.2322719 1.0665349.1074092 1.9947517.775649 2.435 1.753s.325644 2.1153302-.3006426 2.9852719l-18 25c-.5142263.7139791-1.3159684 1.1662157-2.193 1.237-.078.01-.159.01-.239.01-.7955844-.0001699-1.5585218-.3163519-2.121-.879l-8-8c-.77986975-.7532234-1.09263779-1.8686337-.81809147-2.917522s1.0936812-1.8680231 2.1425695-2.1425695c1.04888829-.2745463 2.16429856.0382217 2.91752197.8180915l5.506 5.505 11.796-16.384z" fill="#4fba6f"/><path id="Shape" d="m53 11v2h-29c-.5522847 0-1-.4477153-1-1s.4477153-1 1-1z" fill="#e57e25"/></g></g></svg>