<svg id="Capa_1" enable-background="new 0 0 512 512" height="512" viewBox="0 0 512 512" width="512" xmlns="http://www.w3.org/2000/svg"><g><g><g><g><g><g><path d="m208.194 147.397h-208.194v-80.991c0-17.163 13.913-31.076 31.076-31.076h130.073c14.923 0 27.739 10.608 30.529 25.268z" fill="#d1bc4a"/><path d="m480.924 476.67h-449.848c-17.163 0-31.076-13.913-31.076-31.076v-308.582c0-17.163 13.913-31.076 31.076-31.076h449.847c17.163 0 31.076 13.913 31.076 31.076v308.582c.001 17.163-13.912 31.076-31.075 31.076z" fill="#eadb55"/></g><g><g><g><g><g><path d="m316.098 288.374c-3.112 0-6.044-1.893-7.219-4.974-1.522-3.987.477-8.452 4.464-9.973l29.131-11.117v-35.5c0-4.268 3.459-7.726 7.726-7.726s7.726 3.459 7.726 7.726v40.823c0 3.204-1.978 6.076-4.972 7.218l-34.103 13.013c-.906.346-1.838.51-2.753.51z" fill="#676e84"/></g></g><g><g><path d="m195.005 288.032c-.915 0-1.847-.164-2.753-.51l-33.205-12.671c-2.994-1.142-4.972-4.014-4.972-7.218v-40.823c0-4.268 3.459-7.726 7.726-7.726s7.726 3.459 7.726 7.726v35.501l28.233 10.775c3.987 1.521 5.985 5.986 4.464 9.973-1.175 3.08-4.108 4.973-7.219 4.973z" fill="#676e84"/></g></g></g><g><g><g><path d="m350.199 406.008c-4.268 0-7.726-3.459-7.726-7.726v-35.501l-30.61-11.681c-3.987-1.521-5.986-5.986-4.464-9.973 1.52-3.986 5.985-5.988 9.973-4.464l35.582 13.577c2.994 1.142 4.972 4.014 4.972 7.218v40.823c0 4.268-3.459 7.727-7.727 7.727z" fill="#676e84"/></g></g><g><g><path d="m161.801 406.008c-4.267 0-7.726-3.459-7.726-7.726v-40.823c0-3.204 1.978-6.076 4.972-7.218l35.268-13.458c3.985-1.521 8.452.477 9.973 4.464s-.477 8.452-4.464 9.973l-30.296 11.561v35.501c-.001 4.267-3.46 7.726-7.727 7.726z" fill="#676e84"/></g></g></g></g><g><g><path d="m350.689 317.297h-34.593c-4.268 0-7.726-3.459-7.726-7.726s3.459-7.726 7.726-7.726h34.593c4.268 0 7.726 3.459 7.726 7.726s-3.458 7.726-7.726 7.726z" fill="#676e84"/></g><g><path d="m194.417 317.297h-33.106c-4.267 0-7.726-3.459-7.726-7.726s3.459-7.726 7.726-7.726h33.106c4.267 0 7.726 3.459 7.726 7.726s-3.459 7.726-7.726 7.726z" fill="#676e84"/></g></g><g><path d="m256 386.531c-34.012 0-61.583-27.572-61.583-61.583v-37.774c0-22.167 17.97-40.138 40.138-40.138h42.891c22.167 0 40.138 17.97 40.138 40.138v37.774c-.001 34.012-27.573 61.583-61.584 61.583z" fill="#df705d"/></g><path d="m248.274 386.051c2.531.317 5.11.48 7.726.48 2.617 0 5.195-.163 7.726-.48v-139.014h-15.453v139.014z" fill="#e59186"/></g></g><path d="m31.076 476.67h449.847c17.163 0 31.076-13.913 31.076-31.076v-308.582c0-17.163-13.913-31.076-31.076-31.076h-23.264v308.017c0 17.163-13.913 31.076-31.077 31.076h-426.582v.565c0 17.163 13.913 31.076 31.076 31.076z" fill="#d1bc4a"/></g></g></g></g><path d="m280.391 271.398h-48.782c-9.778 0-17.705-7.927-17.705-17.705 0-23.249 18.847-42.096 42.096-42.096 23.249 0 42.096 18.847 42.096 42.096 0 9.778-7.927 17.705-17.705 17.705z" fill="#676e84"/></svg>